<svg xmlns="http://www.w3.org/2000/svg" viewBox="0 0 100 100"><defs><style>.cls-1,.cls-2,.cls-3{fill:none;stroke:#37b6ae;stroke-miterlimit:10;}.cls-1{stroke-width:4px;}.cls-2{stroke-width:5px;}.cls-3{stroke-width:2px;}</style></defs><title>tel</title><g id="Layer_2" data-name="Layer 2"><path class="cls-1" d="M73.92,28c-10.39-4.71-34.72-3.21-45.61.62-3.71,1.3-9,7.25-9,12.89,0,6.84,4.65,12.38,10.38,12.38,4.94,0,9.07-4.13,10.11-9.66h21.9c1,5.53,5.17,9.66,10.11,9.66,5.73,0,10.38-5.54,10.38-12.38C82.14,35.79,77.52,29.62,73.92,28Z"/><circle class="cls-2" cx="49.79" cy="51.45" r="46.06"/><rect class="cls-3" x="40.51" y="57" width="4.64" height="4.1"/><rect class="cls-3" x="48.25" y="57" width="4.64" height="4.1"/><rect class="cls-3" x="56.25" y="57" width="4.64" height="4.1"/><rect class="cls-3" x="40.64" y="50.61" width="4.64" height="4.1"/><rect class="cls-3" x="48.38" y="50.61" width="4.64" height="4.1"/><rect class="cls-3" x="56.38" y="50.61" width="4.64" height="4.1"/><rect class="cls-3" x="40.51" y="63.39" width="4.64" height="4.1"/><rect class="cls-3" x="48.25" y="63.39" width="4.64" height="4.1"/><rect class="cls-3" x="56.25" y="63.39" width="4.64" height="4.1"/><path class="cls-1" d="M73,53.88a4.31,4.31,0,0,1,4.31,4.31v9.48A4.31,4.31,0,0,1,73,72H28.86a4.31,4.31,0,0,1-4.31-4.31V58.19a4.31,4.31,0,0,1,4.31-4.31"/></g></svg>